<svg id="Layer_1" data-name="Layer 1" xmlns="http://www.w3.org/2000/svg" viewBox="0 0 40 94"><defs><style>.cls-1{fill:#fff;}</style></defs><title>Juno</title><g id="Icon_Juno" data-name="Icon/Juno"><path id="Juno" class="cls-1" d="M31.75,63.76l6.33,3-7.8,4.66-13.92,8.3-7.54,4.5V94L42,73.84V60.52l-8.38-4.19c-.65,2.31-1.28,4.76-1.87,7.43ZM2,35V49.71l9.25,4.37c-.65-2.24-1.3-4.31-1.9-6.25-.47-1.5-.92-2.93-1.33-4.32l-2.1-1,1.51-.92,6.4-3.88L42,20.6V10.8ZM28,69.83C31.35,50,37.52,40.24,37.52,29.36V27.51a9.26,9.26,0,0,0-.08-1.19l-27,16.38c2.42,8.13,6,17.87,8,32.86Zm-5.22-55a5.92,5.92,0,1,0-5.93-5.92,5.92,5.92,0,0,0,5.93,5.92Zm-4.63,2.54A10.13,10.13,0,0,0,8,27.51v.94L26.25,17.38ZM19.68,97h6.15c0-3.76.11-7.28.3-10.58l-6.57,4c.07,2.12.12,4.31.12,6.6Z" transform="translate(-2 -3)"/></g></svg>